<svg xmlns="http://www.w3.org/2000/svg" width="30" height="30" viewBox="0 0 30 30" fill="none">
  <path d="M15 10.3125C12.4112 10.3125 10.3125 12.4112 10.3125 15C10.3125 17.5888 12.4112 19.6875 15 19.6875C17.5888 19.6875 19.6875 17.5888 19.6875 15C19.6875 12.4112 17.5888 10.3125 15 10.3125Z" fill="white"/>
  <path fill-rule="evenodd" clip-rule="evenodd" d="M15 1.5625C15.5178 1.5625 15.9375 1.98223 15.9375 2.5V4.10212C21.2302 4.55141 25.4486 8.76977 25.8979 14.0625H27.5C28.0178 14.0625 28.4375 14.4822 28.4375 15C28.4375 15.5178 28.0178 15.9375 27.5 15.9375H25.8979C25.4486 21.2302 21.2302 25.4486 15.9375 25.8979V27.5C15.9375 28.0178 15.5178 28.4375 15 28.4375C14.4822 28.4375 14.0625 28.0178 14.0625 27.5V25.8979C8.76976 25.4486 4.55141 21.2302 4.10212 15.9375H2.5C1.98223 15.9375 1.5625 15.5178 1.5625 15C1.5625 14.4822 1.98223 14.0625 2.5 14.0625H4.10212C4.55141 8.76977 8.76976 4.55141 14.0625 4.10212V2.5C14.0625 1.98223 14.4822 1.5625 15 1.5625ZM5.9375 15C5.9375 20.0051 9.99492 24.0625 15 24.0625C20.0051 24.0625 24.0625 20.0051 24.0625 15C24.0625 9.99492 20.0051 5.9375 15 5.9375C9.99492 5.9375 5.9375 9.99492 5.9375 15Z" fill="white"/>
</svg>