<svg xmlns="http://www.w3.org/2000/svg" width="27" height="36" viewBox="0 0 27 36" fill="none">
  <path d="M24.4349 16.4005C23.9914 15.8004 23.4515 15.2804 22.9501 14.7604C21.6582 13.5604 20.1928 12.7004 18.9587 11.4403C16.0857 8.52024 15.4494 3.70011 17.2812 0C15.4494 0.460013 13.849 1.50004 12.4799 2.64008C7.48584 6.80019 5.51906 14.1404 7.87148 20.4406C7.94861 20.6406 8.02574 20.8406 8.02574 21.1006C8.02574 21.5406 7.73651 21.9406 7.35086 22.1006C6.90737 22.3006 6.4446 22.1806 6.07824 21.8606C5.96815 21.7662 5.87651 21.6508 5.80829 21.5206C3.6294 18.6605 3.28232 14.5604 4.74777 11.2803C1.52764 14.0004 -0.227035 18.6005 0.0236337 22.9407C0.139327 23.9407 0.25502 24.9407 0.582817 25.9407C0.852768 27.1408 1.37339 28.3408 1.95185 29.4008C4.03433 32.8609 7.6401 35.341 11.5158 35.841C15.6422 36.381 20.0578 35.601 23.2201 32.6409C26.7487 29.3208 27.9828 24.0007 26.1703 19.4406L25.9196 18.9205C25.5147 18.0005 24.4349 16.4005 24.4349 16.4005ZM18.3417 29.0008C17.8018 29.4808 16.9148 30.0009 16.2207 30.2009C14.0611 31.0009 11.9015 29.8809 10.6288 28.5608C12.9234 28.0008 14.2924 26.2407 14.6974 24.4607C15.0252 22.8607 14.4081 21.5406 14.1575 20.0006C13.9261 18.5205 13.9647 17.2605 14.4853 15.8805C14.8516 16.6405 15.2373 17.4005 15.7 18.0005C17.1848 20.0006 19.5179 20.8806 20.0193 23.6007C20.0964 23.8807 20.135 24.1607 20.135 24.4607C20.1928 26.1007 19.4986 27.9008 18.3417 29.0008Z" fill="#BA1B1B"/>
</svg>